<svg xmlns="http://www.w3.org/2000/svg" fill="none" viewBox="0 0 48 48" height="48" width="48" id="Moon-Stars--Streamline-Plump.svg"><desc>Moon Stars Streamline Icon: https://streamlinehq.com</desc><g id="moon-stars--night-time"><path id="Union" fill="#ffffff" fill-rule="evenodd" d="M28.9228 0.7535C29.829 0.7535 30.5637 1.4882 30.5637 2.3944V4.0353H32.2046C33.1109 4.0353 33.8456 4.77 33.8456 5.6763S33.1109 7.3172 32.2046 7.3172H30.5637V8.9581C30.5637 9.8644 29.829 10.5991 28.9228 10.5991S27.2819 9.8644 27.2819 8.9581V7.3172H25.6409C24.7347 7.3172 24 6.5825 24 5.6763S24.7347 4.0353 25.6409 4.0353H27.2819V2.3944C27.2819 1.4882 28.0166 0.7535 28.9228 0.7535ZM17.139 19.3184C17.139 27.7071 23.9394 34.5074 32.3279 34.5074C33.5537 34.5074 34.7456 34.3623 35.8872 34.0881C36.7742 33.8751 37.6316 34.6802 37.2779 35.521C34.3795 42.4097 27.5667 47.2465 19.6242 47.2465C9.0511 47.2465 0.48 38.6754 0.48 28.1023S9.0511 8.9581 19.6242 8.9581C20.2494 8.9581 20.5531 9.703 20.1775 10.2028C18.2697 12.7418 17.139 15.8981 17.139 19.3184ZM39.1228 27.9969C38.8367 28.8668 37.606 28.8668 37.32 27.9969L35.553 22.624C35.4588 22.3378 35.2342 22.1133 34.9481 22.0191L29.5752 20.2521C28.7053 19.966 28.7053 18.7353 29.5752 18.4493L34.9481 16.6823C35.2342 16.5881 35.4588 16.3635 35.553 16.0774L37.32 10.7045C37.606 9.8346 38.8367 9.8346 39.1228 10.7045L40.8898 16.0774C40.9839 16.3635 41.2085 16.5881 41.4947 16.6823L46.8676 18.4493C47.7375 18.7353 47.7375 19.966 46.8676 20.2521L41.4947 22.0191C41.2085 22.1133 40.9839 22.3378 40.8898 22.624L39.1228 27.9969Z" clip-rule="evenodd" stroke-width="1"></path></g></svg>