<svg xmlns="http://www.w3.org/2000/svg" fill="none" viewBox="0 0 14 14" height="14" width="14" id="Controller-1--Streamline-Core.svg"><desc>Controller 1 Streamline Icon: https://streamlinehq.com</desc><g id="controller-1--remote-quadcopter-drones-flying-drone-control-controller-technology-fly"><path id="Subtract" fill="#000000" fill-rule="evenodd" d="M0.6173 4.9835L0.1558 9.1366C-0.0112 10.6401 1.1657 11.9551 2.6785 11.9551C3.6399 11.9551 4.5188 11.4119 4.9487 10.552L5.3483 9.7528H8.6517L9.0513 10.552C9.4812 11.4119 10.3601 11.9551 11.3215 11.9551C12.8343 11.9551 14.0112 10.6401 13.8442 9.1366L13.3827 4.9835C13.1968 3.3106 11.7828 2.0449 10.0995 2.0449H3.9005C2.2172 2.0449 0.8032 3.3106 0.6173 4.9835ZM4.1096 4.1095C4.4896 4.1095 4.7978 4.4177 4.7978 4.7978V5.3943H5.3943C5.7744 5.3943 6.0825 5.7024 6.0825 6.0825S5.7744 6.7707 5.3943 6.7707H4.7978V7.3671C4.7978 7.7472 4.4896 8.0553 4.1095 8.0553C3.7295 8.0553 3.4213 7.7472 3.4213 7.3671V6.7707H2.825C2.4449 6.7707 2.1368 6.4626 2.1368 6.0825S2.4449 5.3943 2.825 5.3943H3.4213V4.7977C3.4213 4.4177 3.7295 4.1095 4.1096 4.1095ZM9.4948 7.4589C9.8749 7.4589 10.183 7.1508 10.183 6.7707S9.8749 6.0825 9.4948 6.0825S8.8066 6.3906 8.8066 6.7707S9.1147 7.4589 9.4948 7.4589ZM11.5593 5.0644C11.5593 5.4445 11.2512 5.7526 10.8711 5.7526C10.4911 5.7526 10.183 5.4445 10.183 5.0644S10.4911 4.3762 10.8711 4.3762C11.2512 4.3762 11.5593 4.6843 11.5593 5.0644Z" clip-rule="evenodd" stroke-width="1"></path></g></svg>